<svg xmlns="http://www.w3.org/2000/svg" xmlns:ev="http://www.w3.org/2001/xml-events" xmlns:xlink="http://www.w3.org/1999/xlink" width="200mm" height="200mm" baseProfile="full" version="1.1" viewBox="0 0 200 200"><rect width="200" height="200" x="0" y="0" fill="#1a1a1a"/><text style="dominant-baseline:central;font-size:9px;font-family:Arial" x="100" y="100" fill="#e1ed5e" alignment-baseline="middle" text-anchor="middle">2022</text><line x1="100" x2="100" y1="15" y2="10" stroke="#e1ed5e" stroke-width=".3"/><path id="id73" fill="none" stroke="none" d="M 100.0 14.0 a86.0,86.0 0 0,1 42.46469731375804,11.215312516191453"/><text fill="#e1ed5e" text-anchor="middle" style="font-size:6.75px;font-family:Arial"><textPath startOffset="22.206" xlink:href="#id73">January</textPath></text><path fill="#4dd2ff" stroke="none" d="M 100.72285384407766 79.0124445844662 l 2.1685615322329816 -62.9626662466014 a84.0,84.0 0 0,0 1.4446366704426739,0.062209093903220936 l -3.2520390350649873 62.916009426173986"/><path fill="#34ff58" stroke="none" d="M 103.59715602781102 79.31037775812273 l 8.116258582028912 -46.68196841652102 a68.38227335841353,68.38227335841353 0 0,0 1.15795571601557,0.21160900563517712 l -8.918609419147383 46.53534392953511"/><line x1="143.237" x2="145.78" y1="26.818" y2="22.514" stroke="#e1ed5e" stroke-width=".3"/><path id="id74" fill="none" stroke="none" d="M 143.74570117128098 25.957352633546492 a86.0,86.0 0 0,1 28.547481713284135,27.462654790039103"/><text fill="#e1ed5e" text-anchor="middle" style="font-size:6.75px;font-family:Arial"><textPath startOffset="19.986" xlink:href="#id74">February</textPath></text><line x1="172.234" x2="176.484" y1="55.198" y2="52.563" stroke="#e1ed5e" stroke-width=".3"/><path id="id75" fill="none" stroke="none" d="M 173.08426987136738 54.67131705675599 a86.0,86.0 0 0,1 12.851231095245387,41.99856678651699"/><text fill="#e1ed5e" text-anchor="middle" style="font-size:6.75px;font-family:Arial"><textPath startOffset="22.206" xlink:href="#id75">March</textPath></text><path fill="#beff1f" stroke="none" d="M 118.03404312379186 89.2402003453031 l 29.532369498790366 -17.620140805599487 a55.38939095451148,55.38939095451148 0 0,0 0.4814665455108016,0.8229823959517384 l -29.831295718771496 17.109178997293853"/><path fill="#ff3004" stroke="none" d="M 118.3937258080291 89.86733742301442 l 15.88331501753372 -8.749737457018337 a39.133879935440234,39.133879935440234 0 0,0 0.31995096338438644,0.5928205430213271 l -16.031574080136572 8.475035930664552"/><path fill="#ffc712" stroke="none" d="M 118.89224826269711 90.83032412892265 l 24.07201742058403 -11.683765438628129 a47.75766053902662,47.75766053902662 0 0,0 0.3525920927553797,0.7426488695373153 l -24.269567707181167 11.267674153450272"/><path fill="#3aff92" stroke="none" d="M 119.34039704204932 91.81776055985345 l 47.22552072665129 -19.979451167984916 a72.27795117667304,72.27795117667304 0 0,0 0.47489475136567283,1.149995308745765 l -47.56243716490316 19.163581288785846"/><line x1="184.98" x2="189.979" y1="98.171" y2="98.064" stroke="#e1ed5e" stroke-width=".3"/><path id="id76" fill="none" stroke="none" d="M 185.9800911702706 98.14961562048488 a86.0,86.0 0 0,1 -9.607161424134198,41.387399972396054"/><text fill="#e1ed5e" text-anchor="middle" style="font-size:6.75px;font-family:Arial"><textPath startOffset="21.466" xlink:href="#id76">April</textPath></text><path fill="#ecff1a" stroke="none" d="M 120.64145759157962 103.86396538481128 l 30.82430190139267 5.77013687282145 a52.359720458564254,52.359720458564254 0 0,0 -0.17346044103227645,0.8844710517731122 l -30.72041152738473 -6.299871651662507"/><path fill="#edff1a" stroke="none" d="M 120.23288151984713 105.62410040840565 l 30.17430784261822 8.387502140738547 a52.318349987539015,52.318349987539015 0 0,0 -0.24865507403459253,0.8656009331954941 l -30.02546013169753 -8.905660549438624"/><path fill="#eeff19" stroke="none" d="M 119.41010516605496 108.01547362559984 l 28.895575218795813 11.93253303273412 a52.26243131623607,52.26243131623607 0 0,0 -0.3505291510188665,0.8285473683713069 l -28.68589508658464 -12.42815492677159"/><line x1="174.801" x2="179.201" y1="140.371" y2="142.746" stroke="#e1ed5e" stroke-width=".3"/><path id="id77" fill="none" stroke="none" d="M 175.68104954172406 140.8457921977663 a86.0,86.0 0 0,1 -30.038265399797805,32.042727171017184"/><text fill="#e1ed5e" text-anchor="middle" style="font-size:6.75px;font-family:Arial"><textPath startOffset="22.206" xlink:href="#id77">May</textPath></text><path fill="#ffbf11" stroke="none" d="M 116.27256486870786 113.27417163493432 l 20.331629616392522 16.58531051026247 a47.23828667386635,47.23828667386635 0 0,0 -0.5194052071986316,0.6256570319794531 l -20.043128409300348 -16.932828799355697"/><path fill="#ffb410" stroke="none" d="M 115.56566222782051 114.09645910891815 l 18.97140706684822 17.180744387379146 a46.594770243167225,46.594770243167225 0 0,0 -0.5435026828418028,0.5898648191412433 l -18.672857976010693 -17.504760461321723"/><path fill="#ffd614" stroke="none" d="M 114.55890576462653 115.13401014063108 l 19.179932483368777 19.937576174521556 a48.665443314384724,48.665443314384724 0 0,0 -0.6086984791511577,0.5755624050808538 l -18.83389816982681 -20.26477321634833"/><path fill="#ffb410" stroke="none" d="M 113.20401910651253 116.32954008644616 l 16.107887109906052 19.92078216089718 a46.61838381021326,46.61838381021326 0 0,0 -0.628332582814648,0.4991854048956884 l -15.762597034374055 -20.195101479797994"/><line x1="143.865" x2="146.446" y1="172.807" y2="177.09" stroke="#e1ed5e" stroke-width=".3"/><path id="id78" fill="none" stroke="none" d="M 144.38136562736335 173.6633856474863 a86.0,86.0 0 0,1 -40.68145358897372,12.25698825130547"/><text fill="#e1ed5e" text-anchor="middle" style="font-size:6.75px;font-family:Arial"><textPath startOffset="21.466" xlink:href="#id78">June</textPath></text><path fill="#ff4106" stroke="none" d="M 108.2653958097858 119.30500536409082 l 7.50260766623142 17.523405360670797 a40.061974116753504,40.061974116753504 0 0,0 -0.6362767503243469,0.2659637332391494 l -7.1998594564096114 -17.64995413692992"/><path fill="#ffc712" stroke="none" d="M 106.2309692047433 120.05430185196036 l 7.929764800471789 25.5218557014619 a47.72538658723283,47.72538658723283 0 0,0 -0.7866166977311958,0.23700115831124435 l -7.489273128300348 -25.65457222887887"/><path fill="#efff19" stroke="none" d="M 103.06178313531738 120.77559828337769 l 4.552668730817653 30.89193861503131 a52.22560910482656,52.22560910482656 0 0,0 -0.8904998775376733,0.12341516877335758 l -4.020240262093149 -30.96572834929727"/><path fill="#ffd413" stroke="none" d="M 102.34483914955558 120.86867818915974 l 3.0753734345801775 27.3703117460779 a48.54254684737073,48.54254684737073 0 0,0 -0.8311579773361897,0.08615292275083052 l -2.6037828606383853 -27.419194037284488"/><line x1="102.195" x2="102.324" y1="184.972" y2="189.97" stroke="#e1ed5e" stroke-width=".3"/><path id="id79" fill="none" stroke="none" d="M 102.22038585953345 185.97133177190398 a86.0,86.0 0 0,1 -42.740103519485714,-10.115201625700543"/><text fill="#e1ed5e" text-anchor="middle" style="font-size:6.75px;font-family:Arial"><textPath startOffset="22.206" xlink:href="#id79">July</textPath></text><path fill="#ff1f03" stroke="none" d="M 94.11515582081647 120.15858648285463 l -4.836595615668644 16.5678016328682 a38.25933683823267,38.25933683823267 0 0,0 -0.6305959019539299,-0.18999337240165762 l 5.12106649206282 -16.482092891360814"/><path fill="#ff1302" stroke="none" d="M 93.76903079525671 120.05430185196036 l -4.931753744649444 15.872792017563897 a37.621303241042924,37.621303241042924 0 0,0 -0.6167719845596239,-0.1974709124386722 l 5.204247074300008 -15.78554825846552"/><path fill="#ff0200" stroke="none" d="M 92.06813273071674 119.44442032107085 l -5.935498370355282 14.55046097091941 a36.714517344504706,36.714517344504706 0 0,0 -0.5831113992937029,-0.24374061219650342 l 6.185081229146448 -14.446135315702934"/><line x1="58.667" x2="56.235" y1="174.274" y2="178.643" stroke="#e1ed5e" stroke-width=".3"/><path id="id80" fill="none" stroke="none" d="M 58.180547188652646 175.14741091055294 a86.0,86.0 0 0,1 -31.652253787137756,-30.449443065178592"/><text fill="#e1ed5e" text-anchor="middle" style="font-size:6.75px;font-family:Arial"><textPath startOffset="22.206" xlink:href="#id80">August</textPath></text><line x1="26.633" x2="22.317" y1="142.922" y2="145.446" stroke="#e1ed5e" stroke-width=".3"/><path id="id81" fill="none" stroke="none" d="M 25.769776987707644 143.4266507060508 a86.0,86.0 0 0,1 -11.730757126820373,-40.83630448921669"/><text fill="#e1ed5e" text-anchor="middle" style="font-size:6.75px;font-family:Arial"><textPath startOffset="21.466" xlink:href="#id81">September</textPath></text><path fill="#ff0c01" stroke="none" d="M 80.58989483394504 108.01547362559985 l -14.989747009483773 6.190070624607104 a37.21756731898935,37.21756731898935 0 0,0 -0.23942838326167346,-0.5942416118766704 l 15.094078007002834 -5.931129644887629"/><path fill="red" stroke="none" d="M 80.32549172779594 107.34259656027581 l -14.627462093158742 5.459020950603926 a36.61292916226576,36.61292916226576 0 0,0 -0.21527659452733974,-0.5923487305208938 l 14.719262948691307 -5.206424423076915"/><path fill="#ff0200" stroke="none" d="M 80.20201598880116 107.00284435728193 l -14.822731104452817 5.243022664106053 a36.72267928984252,36.72267928984252 0 0,0 -0.20566303794365198,-0.5977530569983585 l 14.910784973339698 -4.987096904018397"/><path fill="#ff2003" stroke="none" d="M 79.58551787078972 104.9243191809786 l -16.83411028941978 4.060672794353459 a38.316937742544184,38.316937742544184 0 0,0 -0.149143086016653,-0.6425045111225322 l 16.90151394136699 -3.7702996258823522"/><path fill="#ff5f08" stroke="none" d="M 79.35854240842038 103.8639653848113 l -20.404607380824505 3.819628350390026 a41.759035697755834,41.759035697755834 0 0,0 -0.12617901807178222,-0.7076789424901749 l 20.467332841235475 -3.4678306571666373"/><line x1="15.007" x2="10.008" y1="101.097" y2="101.162" stroke="#e1ed5e" stroke-width=".3"/><path id="id82" fill="none" stroke="none" d="M 14.007167355692545 101.11028546245083 a86.0,86.0 0 0,1 10.666146001902534,-42.60595125391555"/><text fill="#e1ed5e" text-anchor="middle" style="font-size:6.75px;font-family:Arial"><textPath startOffset="22.206" xlink:href="#id82">October</textPath></text><path fill="#ff5f08" stroke="none" d="M 79.54389044137918 95.25157060432595 l -20.210795497775788 -4.691485210155748 a41.748163488126465,41.748163488126465 0 0,0 0.16851785300677027,-0.6986152952774091 l 20.1270448445082 5.038685737092554"/><path fill="#ff2403" stroke="none" d="M 79.91906864156998 93.8553929516997 l -16.761565058365797 -5.128907069090787 a38.52871218684358,38.52871218684358 0 0,0 0.19951362703773398,-0.6325127197247095 l 16.670795947559856 5.416669955241911"/><path fill="#ff2703" stroke="none" d="M 80.38941819471856 92.48833698450439 l -16.501125924824844 -6.320612950410313 a38.670237826804176,38.670237826804176 0 0,0 0.2434502318244061,-0.6195542856069408 l 16.389882143118747 6.603716240913017"/><line x1="26.266" x2="21.929" y1="57.711" y2="55.224" stroke="#e1ed5e" stroke-width=".3"/><path id="id83" fill="none" stroke="none" d="M 25.398753493254645 57.213857153982495 a86.0,86.0 0 0,1 29.58750427330803,-30.492523968695096"/><text fill="#e1ed5e" text-anchor="middle" style="font-size:6.75px;font-family:Arial"><textPath startOffset="21.466" xlink:href="#id83">November</textPath></text><path fill="#efff19" stroke="none" d="M 83.17141714833178 87.43820079747576 l -25.00581260339946 -18.66574265870018 a52.20417621019902,52.20417621019902 0 0,0 0.5437290170452727,-0.7154836512326102 l 24.680807646130077 19.093411085813816"/><line x1="56.763" x2="54.22" y1="26.818" y2="22.514" stroke="#e1ed5e" stroke-width=".3"/><path id="id84" fill="none" stroke="none" d="M 56.25429882871897 25.957352633546506 a86.0,86.0 0 0,1 42.265352541879196,-11.944610805530505"/><text fill="#e1ed5e" text-anchor="middle" style="font-size:6.75px;font-family:Arial"><textPath startOffset="22.206" xlink:href="#id84">December</textPath></text></svg>