<svg xmlns="http://www.w3.org/2000/svg" xmlns:ev="http://www.w3.org/2001/xml-events" xmlns:xlink="http://www.w3.org/1999/xlink" width="200mm" height="200mm" baseProfile="full" version="1.1" viewBox="0 0 200 200"><rect width="200" height="200" x="0" y="0" fill="#1a1a1a"/><text style="dominant-baseline:central;font-size:9px;font-family:Arial" x="100" y="100" fill="#e1ed5e" alignment-baseline="middle" text-anchor="middle">2023</text><line x1="100" x2="100" y1="15" y2="10" stroke="#e1ed5e" stroke-width=".3"/><path id="id85" fill="none" stroke="none" d="M 100.0 14.0 a86.0,86.0 0 0,1 42.46469731375804,11.215312516191453"/><text fill="#e1ed5e" text-anchor="middle" style="font-size:6.75px;font-family:Arial"><textPath startOffset="22.206" xlink:href="#id85">January</textPath></text><line x1="143.237" x2="145.78" y1="26.818" y2="22.514" stroke="#e1ed5e" stroke-width=".3"/><path id="id86" fill="none" stroke="none" d="M 143.74570117128098 25.957352633546492 a86.0,86.0 0 0,1 28.547481713284135,27.462654790039103"/><text fill="#e1ed5e" text-anchor="middle" style="font-size:6.75px;font-family:Arial"><textPath startOffset="19.986" xlink:href="#id86">February</textPath></text><path fill="red" stroke="none" d="M 117.45458315368197 88.32363383020206 l 38.08418363292971 -25.476682511441616 a66.81993446934976,66.81993446934976 0 0,0 0.6312999916134268,0.961513198230146 l -38.517080259901064 24.817351249233795"/><line x1="172.234" x2="176.484" y1="55.198" y2="52.563" stroke="#e1ed5e" stroke-width=".3"/><path id="id87" fill="none" stroke="none" d="M 173.08426987136738 54.67131705675599 a86.0,86.0 0 0,1 12.851231095245387,41.99856678651699"/><text fill="#e1ed5e" text-anchor="middle" style="font-size:6.75px;font-family:Arial"><textPath startOffset="22.206" xlink:href="#id87">March</textPath></text><line x1="184.98" x2="189.979" y1="98.171" y2="98.064" stroke="#e1ed5e" stroke-width=".3"/><path id="id88" fill="none" stroke="none" d="M 185.9800911702706 98.14961562048488 a86.0,86.0 0 0,1 -9.607161424134198,41.387399972396054"/><text fill="#e1ed5e" text-anchor="middle" style="font-size:6.75px;font-family:Arial"><textPath startOffset="21.466" xlink:href="#id88">April</textPath></text><line x1="174.801" x2="179.201" y1="140.371" y2="142.746" stroke="#e1ed5e" stroke-width=".3"/><path id="id89" fill="none" stroke="none" d="M 175.68104954172406 140.8457921977663 a86.0,86.0 0 0,1 -30.038265399797805,32.042727171017184"/><text fill="#e1ed5e" text-anchor="middle" style="font-size:6.75px;font-family:Arial"><textPath startOffset="22.206" xlink:href="#id89">May</textPath></text><line x1="143.865" x2="146.446" y1="172.807" y2="177.09" stroke="#e1ed5e" stroke-width=".3"/><path id="id90" fill="none" stroke="none" d="M 144.38136562736335 173.6633856474863 a86.0,86.0 0 0,1 -40.68145358897372,12.25698825130547"/><text fill="#e1ed5e" text-anchor="middle" style="font-size:6.75px;font-family:Arial"><textPath startOffset="21.466" xlink:href="#id90">June</textPath></text><path fill="red" stroke="none" d="M 104.13013068566511 120.58985236759428 l 9.881705018360725 49.263053146076814 a71.24436783703308,71.24436783703308 0 0,0 -1.2044789457863236,0.23084125664400088 l -9.032258458002698 -49.42585160106928"/><line x1="102.195" x2="102.324" y1="184.972" y2="189.97" stroke="#e1ed5e" stroke-width=".3"/><path id="id91" fill="none" stroke="none" d="M 102.22038585953345 185.97133177190398 a86.0,86.0 0 0,1 -42.740103519485714,-10.115201625700543"/><text fill="#e1ed5e" text-anchor="middle" style="font-size:6.75px;font-family:Arial"><textPath startOffset="22.206" xlink:href="#id91">July</textPath></text><path fill="red" stroke="none" d="M 91.40352486487194 119.15986991738527 l -25.789425405384158 57.479609752155824 a84.0,84.0 0 0,0 -1.3141280169303222,-0.6032517186637025 l 26.7750214180819 -57.02717096315804"/><path fill="red" stroke="none" d="M 90.10565033884886 118.52300852407294 l -23.279265313566192 43.58063385715992 a70.40845920418121,70.40845920418121 0 0,0 -1.064097085851646,-0.5802305743083198 l 24.02598521128648 -43.17346263109183"/><line x1="58.667" x2="56.235" y1="174.274" y2="178.643" stroke="#e1ed5e" stroke-width=".3"/><path id="id92" fill="none" stroke="none" d="M 58.180547188652646 175.14741091055294 a86.0,86.0 0 0,1 -31.652253787137756,-30.449443065178592"/><text fill="#e1ed5e" text-anchor="middle" style="font-size:6.75px;font-family:Arial"><textPath startOffset="22.206" xlink:href="#id92">August</textPath></text><path fill="red" stroke="none" d="M 89.4739219176387 118.17145234162733 l -26.967969899526757 46.55553340430473 a74.80231492288334,74.80231492288334 0 0,0 -1.108613510735924,-0.6549884030358264 l 27.765351281291064 -46.084426428975156"/><path fill="red" stroke="none" d="M 88.54995079064634 117.60387380957326 l -26.35278600844453 40.51608084307368 a69.33241290572354,69.33241290572354 0 0,0 -0.9948385812334527,-0.6593247647517526 l 27.046299288417945 -40.056458057230614"/><path fill="red" stroke="none" d="M 87.95078237400918 117.19931262002967 l -22.99835580759508 32.82834815998901 a61.082724617548095,61.082724617548095 0 0,0 -0.8559512664512597,-0.6106985016973138 l 23.560034401895226 -32.42760539644748"/><path fill="red" stroke="none" d="M 87.65650970185807 116.9893568818739 l -33.99602279468103 46.79151114252489 a78.8374885420996,78.8374885420996 0 0,0 -1.0910170983232559,-0.8071083668044785 l 34.79642486342286 -46.19939282698065"/><path fill="red" stroke="none" d="M 85.70375840098266 115.38237550388516 l -35.589415115719554 38.29326354636271 a73.27791600006832,73.27791600006832 0 0,0 -0.9165467935113213,-0.8666522012313399 l 36.243297743621696 -37.674976708385444"/><line x1="26.633" x2="22.317" y1="142.922" y2="145.446" stroke="#e1ed5e" stroke-width=".3"/><path id="id93" fill="none" stroke="none" d="M 25.769776987707644 143.4266507060508 a86.0,86.0 0 0,1 -11.730757126820373,-40.83630448921669"/><text fill="#e1ed5e" text-anchor="middle" style="font-size:6.75px;font-family:Arial"><textPath startOffset="21.466" xlink:href="#id93">September</textPath></text><line x1="15.007" x2="10.008" y1="101.097" y2="101.162" stroke="#e1ed5e" stroke-width=".3"/><path id="id94" fill="none" stroke="none" d="M 14.007167355692545 101.11028546245083 a86.0,86.0 0 0,1 10.666146001902534,-42.60595125391555"/><text fill="#e1ed5e" text-anchor="middle" style="font-size:6.75px;font-family:Arial"><textPath startOffset="22.206" xlink:href="#id94">October</textPath></text><path fill="red" stroke="none" d="M 79.46518482838121 95.60439243477599 l -45.63251016322318 -9.767928526128193 a67.6662448830867,67.6662448830867 0 0,0 0.25360539441874175,-1.136863256158636 l 45.457610381802404 10.551969951836789"/><line x1="26.266" x2="21.929" y1="57.711" y2="55.224" stroke="#e1ed5e" stroke-width=".3"/><path id="id95" fill="none" stroke="none" d="M 25.398753493254645 57.213857153982495 a86.0,86.0 0 0,1 29.58750427330803,-30.492523968695096"/><text fill="#e1ed5e" text-anchor="middle" style="font-size:6.75px;font-family:Arial"><textPath startOffset="21.466" xlink:href="#id95">November</textPath></text><line x1="56.763" x2="54.22" y1="26.818" y2="22.514" stroke="#e1ed5e" stroke-width=".3"/><path id="id96" fill="none" stroke="none" d="M 56.25429882871897 25.957352633546506 a86.0,86.0 0 0,1 42.265352541879196,-11.944610805530505"/><text fill="#e1ed5e" text-anchor="middle" style="font-size:6.75px;font-family:Arial"><textPath startOffset="22.206" xlink:href="#id96">December</textPath></text></svg>